<?xml version="1.0" encoding="utf-8" standalone="yes"?>
<!DOCTYPE svg PUBLIC "-//W3C//DTD SVG 1.1//EN" "http://www.w3.org/Graphics/SVG/1.1/DTD/svg11.dtd">
<svg xmlns="http://www.w3.org/2000/svg" xml:space="preserve" width="100%" height="100%" viewBox="0 0 600 600">
 <title>SVG Logo Basic</title>
 <desc>Designed for the SVG Logo Contest in 2006 by Harvey Rayner. It is available under the Creative Commons license for those who have an SVG product or who are using SVG on their site.</desc>
   <metadata>
      <title>Creative Commons License</title>
      <rdf:RDF xmlns="http://web.resource.org/cc/" xmlns:dc="http://purl.org/dc/elements/1.1/" xmlns:rdf="http://www.w3.org/1999/02/22-rdf-syntax-ns#" xmlns:rdfs="http://www.w3.org/2000/01/rdf-schema#">
         <Work>
            <license rdf:resource="http://creativecommons.org/licenses/by-nd/2.5/"/>
            <dc:type rdf:resource="http://purl.org/dc/dcmitype/StillImage"/>
         </Work>
         <License rdf:about="http://creativecommons.org/licenses/by-nd/2.5/">
            <permits rdf:resource="http://web.resource.org/cc/Reproduction"/>
            <permits rdf:resource="http://web.resource.org/cc/Distribution"/>
            <requires rdf:resource="http://web.resource.org/cc/Notice"/>
            <requires rdf:resource="http://web.resource.org/cc/Attribution"/>
         </License>
      </rdf:RDF> 
   </metadata>
 <defs>
   <linearGradient id="id0" gradientUnits="userSpaceOnUse" x1="300" y1="600.001" x2="300" y2="-.00118111">
     <stop stop-color="#FF8595"/>
     <stop offset=".239216" stop-color="#f71e3b"/>
     <stop offset=".501961" stop-color="#f71e3b"/>
     <stop offset=".858824" stop-color="#cc172f"/>
     <stop offset="1" stop-color="#870a1a"/>
    </linearGradient>
    <linearGradient id="id1" gradientUnits="userSpaceOnUse" x1="300.004" y1="410.82" x2="300.004" y2="189.18">
     <stop stop-color="#ffb0bb"/>
     <stop offset=".101961" stop-color="#f5566b"/>
     <stop offset=".239216" stop-color="#5e010d"/>
     <stop offset="1" stop-color="#290005"/>
    </linearGradient>
    <linearGradient id="id2" gradientUnits="userSpaceOnUse" x1="300" y1="319.662" x2="300" y2="199.109">
     <stop stop-color="#D45162"/>
     <stop offset=".560784" stop-color="#f71e3b"/>
     <stop offset="1" stop-color="#ffb0bb"/>
    </linearGradient>
 </defs>
 <g>
  <rect id="background" fill="url(#id0)" x="0" y="0" width="600" height="600"/>
  <g id="node_outline" fill="#000">
   <circle cx="521.638" cy="300" r="45.9027"/>
   <circle cx="489.181" cy="221.639" r="45.9024"/>
   <circle cx="410.818" cy="189.181" r="45.9024"/>
   <circle cx="378.361" cy="110.82" r="45.9024"/>
   <circle cx="300" cy="78.3614" r="45.9024"/>
   <circle cx="221.639" cy="110.82" r="45.9024"/>
   <circle cx="189.181" cy="189.181" r="45.9024"/>
   <circle cx="110.82" cy="221.639" r="45.9024"/>
   <circle cx="78.3618" cy="300" r="45.9027"/>
   <circle cx="110.819" cy="378.363" r="45.9012"/>
   <circle cx="189.18" cy="410.819" r="45.9012"/>
   <circle cx="221.639" cy="489.18" r="45.9024"/>
   <circle cx="300" cy="521.639" r="45.9024"/>
   <circle cx="378.361" cy="489.18" r="45.9024"/>
   <circle cx="410.819" cy="410.82" r="45.9012"/>
   <circle cx="489.181" cy="378.361" r="45.9024"/>
   <rect x="200" y="100" width="200" height="400"/>
   <rect x="100" y="200" width="400" height="200"/>
  </g>
   <g id="nodes" fill="#fff">
   <circle cx="521.639" cy="300" r="24.848"/>
   <circle cx="489.181" cy="221.639" r="24.848"/>
   <circle cx="410.82" cy="189.181" r="24.8492"/>
   <circle cx="378.36" cy="110.82" r="24.848"/>
   <circle cx="300.001" cy="78.3614" r="24.848"/>
   <circle cx="221.639" cy="110.82" r="24.8492"/>
   <circle cx="189.181" cy="189.182" r="24.8504"/>
   <circle cx="110.82" cy="221.639" r="24.848"/>
   <circle cx="78.3626" cy="299.999" r="24.848"/>
   <circle cx="110.82" cy="378.36" r="24.8469"/>
   <circle cx="189.181" cy="410.82" r="24.8504"/>
   <circle cx="221.64" cy="489.18" r="24.848"/>
   <circle cx="300" cy="521.639" r="24.848"/>
   <circle cx="378.361" cy="489.178" r="24.848"/>
   <circle cx="410.82" cy="410.82" r="24.8469"/>
   <circle cx="489.181" cy="378.361" r="24.848"/>
   </g>
   <g id="connectors" stroke="white" fill="none" stroke-width="35.1378">
    <line x1="221.639" y1="110.819" x2="489.181" y2= "378.361"/>
    <line x1="189.181" y1="189.181" x2="410.819" y2= "189.181"/>
    <line x1="110.819" y1="378.361" x2="378.361" y2= "110.819"/>
    <line x1="189.181" y1="410.819" x2="189.181" y2= "189.181"/>
    <line x1="300.001" y1="521.637" x2="300.001" y2= "78.3614"/>
    <line x1="378.363" y1="489.18" x2="110.82" y2= "221.639"/>
    <line x1="410.82" y1="410.819" x2="189.182" y2= "410.819"/>
    <line x1="521.639" y1="299.999" x2="78.3626" y2= "299.999"/>
    <line x1="489.181" y1="221.639" x2="221.64" y2= "489.18"/>
    <line x1="410.82" y1="189.18" x2="410.82" y2= "410.818"/>
   </g>
  <rect fill="url(#id1)" x="189.189" y="189.181" width="221.631" height="221.639"/>
  <path fill="url(#id2)" d="M212.548 199.109l174.905 0c7.16693,0 13.0193,5.86181 13.0193,13.0193l0 107.542c-67.5945,-8.3622 -134.608,-41.25 -200.943,-40.1811l0 -67.3606c0,-7.16575 5.85236,-13.0193 13.0193,-13.0193z"/>
  <g id="SVG" fill="#fff">
   <path id="S" d="M219.402 301.214c-5.38819,-5.38819 -8.72126,-12.8315 -8.72126,-21.0508 0,-16.4409 13.3323,-29.7732 29.772,-29.7732 16.4398,0 29.772,13.3323 29.772,29.7732l-17.4402 0c0,-6.81024 -5.52283,-12.3331 -12.3319,-12.3331 -6.81024,0 -12.3319,5.52283 -12.3319,12.3331 0,3.40157 1.37717,6.48189 3.60591,8.71299l0.00590551 0c2.2311,2.23346 5.31378,3.61417 8.72008,3.61417l0 0.00472441c8.21929,0 15.6614,3.33425 21.0496,8.72244l0.0011811 -.0011811c5.38819,5.38819 8.72126,12.8315 8.72126,21.052 0,16.4398 -13.3323,29.7732 -29.772,29.7732 -16.4398,0 -29.772,-13.3335 -29.772,-29.7732l17.4402 0c0,6.80906 5.52165,12.3319 12.3319,12.3319 6.80906,0 12.3319,-5.52283 12.3319,-12.3319 0,-3.40157 -1.37835,-6.48189 -3.60591,-8.71417l-.00590551 0c-2.23228,-2.23228 -5.31496,-3.61417 -8.72008,-3.61417l0 -.00472441c-8.22047,0 -15.6626,-3.33307 -21.0508,-8.72126l0 0z"/>
   <polygon id="V" points="329.767,250.39 308.715,352.042 291.275,352.042 270.224,250.39 287.668,250.39 299.995,309.927 312.324,250.39 "/>
   <path id="G" d="M359.544 292.498l29.772 0 0 29.7685 0.00354331 0c0,16.4409 -13.3323,29.7756 -29.7732,29.7744 -16.4409,0.0011811 -29.7732,-13.3323 -29.7744,-29.772l0 -.0023622 0 -42.1016 -.00472441 0c0,-16.4409 13.3335,-29.7744 29.7744,-29.7744 16.4409,0 29.7744,13.3335 29.7744,29.7744l-17.4449 0c0,-6.80669 -5.52047,-12.3272 -12.3272,-12.3272 -6.80787,0 -12.3283,5.52047 -12.3283,12.3272l0 42.1039 0 0c0.0011811,6.80669 5.52165,12.326 12.3283,12.326 6.80551,0 12.3248,-5.51811 12.3272,-12.3236l0 -.00472441 0 -12.3236 -12.3272 0 0 -17.4449z"/>
     </g>
 </g>
</svg>
